<svg width="247" height="274" viewBox="0 0 247 274" fill="none" xmlns="http://www.w3.org/2000/svg">
<path d="M0.78 10.4601C0.78 7.90012 2.9 6.12012 5.98 6.12012C8.94 6.12012 10.82 7.76012 10.9 10.4001H8.34C8.28 9.14012 7.38 8.40012 5.94 8.40012C4.36 8.40012 3.34 9.16012 3.34 10.3801C3.34 11.4201 3.9 12.0001 5.12 12.2801L7.42 12.7801C9.92 13.3201 11.14 14.6001 11.14 16.7801C11.14 19.5001 9.02 21.2601 5.8 21.2601C2.68 21.2601 0.64 19.6001 0.58 16.9801H3.14C3.16 18.2201 4.16 18.9601 5.8 18.9601C7.5 18.9601 8.58 18.2201 8.58 17.0001C8.58 16.0201 8.08 15.4401 6.88 15.1801L4.56 14.6601C2.08 14.1201 0.78 12.7001 0.78 10.4601ZM14.3159 9.14012C13.4759 9.14012 12.8159 8.48012 12.8159 7.66012C12.8159 6.84012 13.4759 6.20012 14.3159 6.20012C15.1159 6.20012 15.7759 6.84012 15.7759 7.66012C15.7759 8.48012 15.1159 9.14012 14.3159 9.14012ZM13.0959 21.0001V11.1201H15.5359V21.0001H13.0959ZM25.5169 21.0001H17.5369V19.0001L22.4569 13.1601H17.5369V11.1201H25.5169V13.1401L20.5169 18.9601H25.5169V21.0001ZM31.8128 21.2601C28.8728 21.2601 26.8128 19.1201 26.8128 16.0601C26.8128 12.9601 28.8328 10.8201 31.7328 10.8201C34.6928 10.8201 36.5728 12.8001 36.5728 15.8801V16.6201L29.1328 16.6401C29.3128 18.3801 30.2328 19.2601 31.8528 19.2601C33.1928 19.2601 34.0728 18.7401 34.3528 17.8001H36.6128C36.1928 19.9601 34.3928 21.2601 31.8128 21.2601ZM31.7528 12.8201C30.3128 12.8201 29.4328 13.6001 29.1928 15.0801H34.1528C34.1528 13.7201 33.2128 12.8201 31.7528 12.8201Z" fill="black"/>
<path d="M233.469 14.9694L238.469 9.96945C238.539 9.89953 238.622 9.84405 238.713 9.8062C238.804 9.76834 238.902 9.74886 239.001 9.74886C239.099 9.74886 239.197 9.76834 239.288 9.8062C239.379 9.84405 239.462 9.89953 239.532 9.96945L244.532 14.9694C244.673 15.1103 244.752 15.3014 244.752 15.5007C244.752 15.7 244.673 15.8911 244.532 16.0319C244.391 16.1728 244.2 16.252 244.001 16.252C243.801 16.252 243.61 16.1728 243.469 16.0319L239 11.5626L234.531 16.0326C234.39 16.1735 234.199 16.2526 233.999 16.2526C233.8 16.2526 233.609 16.1735 233.468 16.0326C233.327 15.8917 233.248 15.7006 233.248 15.5013C233.248 15.3021 233.327 15.111 233.468 14.9701L233.469 14.9694Z" fill="black"/>
<rect y="47.0001" width="96" height="39" rx="19.5" fill="#F0F0F0"/>
<path d="M23.696 67.0021L20.196 61.9761H21.386L23.248 64.6081C23.724 65.2801 24.046 65.8121 24.284 66.2601L27.196 61.9761H28.358L24.914 66.9741L28.414 72.0001H27.21L25.306 69.3121C24.97 68.8361 24.564 68.2201 24.312 67.7721L21.386 72.0001H20.21L23.696 67.0021ZM32.2683 67.0021L28.7683 61.9761H29.9583L31.8203 64.6081C32.2963 65.2801 32.6183 65.8121 32.8563 66.2601L35.7683 61.9761H36.9303L33.4863 66.9741L36.9863 72.0001H35.7823L33.8783 69.3121C33.5423 68.8361 33.1363 68.2201 32.8843 67.7721L29.9583 72.0001H28.7823L32.2683 67.0021ZM37.8628 68.7521V67.8841H41.9228V68.7521H37.8628ZM43.0926 64.5801C43.0926 62.9001 44.4366 61.7941 46.4526 61.7941C48.2586 61.7941 49.4486 62.8021 49.6026 64.4821H48.5806C48.4686 63.3481 47.6986 62.7041 46.4386 62.7041C45.0246 62.7041 44.1006 63.4321 44.1006 64.5661C44.1006 65.4481 44.6186 66.0081 45.6686 66.2741L47.3906 66.6941C48.9586 67.0721 49.7706 67.9681 49.7706 69.3261C49.7706 71.0621 48.4266 72.1681 46.3546 72.1681C44.4086 72.1681 43.0926 71.1461 42.9666 69.5081H44.0026C44.0586 70.5581 44.9826 71.2441 46.3546 71.2441C47.8246 71.2441 48.7626 70.5301 48.7626 69.3821C48.7626 68.4861 48.2586 67.8981 47.1806 67.6461L45.4866 67.2261C43.9186 66.8481 43.0926 65.9521 43.0926 64.5801ZM52.3392 72.0001H51.3732V65.2241H52.2132L52.3252 66.1901C52.6612 65.4761 53.4172 65.0421 54.3692 65.0421C55.4332 65.0421 56.2312 65.6021 56.5532 66.4841C56.8612 65.6021 57.6872 65.0421 58.7792 65.0421C60.2492 65.0421 61.2152 65.9941 61.2152 67.5621V72.0001H60.2772V67.7581C60.2772 66.5961 59.6332 65.9101 58.5972 65.9101C57.4632 65.9101 56.7912 66.7641 56.7912 67.8141V72.0001H55.8392V67.7441C55.8392 66.5961 55.1812 65.9241 54.1592 65.9241C53.0252 65.9241 52.3392 66.7641 52.3392 67.8001V72.0001ZM65.1044 72.1681C63.6624 72.1681 62.8084 71.3561 62.8084 70.1661C62.8084 68.9201 63.7604 68.1361 65.3424 68.0101L67.5824 67.8281V67.6041C67.5824 66.2741 66.7844 65.8541 65.7904 65.8541C64.6144 65.8541 63.9144 66.3861 63.9144 67.2961H63.0324C63.0324 65.9241 64.1524 65.0421 65.8184 65.0421C67.3864 65.0421 68.5344 65.8261 68.5344 67.6181V72.0001H67.7224L67.5964 70.8101C67.1764 71.6641 66.2524 72.1681 65.1044 72.1681ZM65.3284 71.3841C66.7564 71.3841 67.5824 70.3901 67.5824 68.9201V68.5561L65.5804 68.7101C64.3064 68.8221 63.7884 69.3821 63.7884 70.1381C63.7884 70.9641 64.4044 71.3841 65.3284 71.3841ZM71.4808 72.0001H70.5148V61.7941H71.4808V72.0001ZM74.5433 72.0001H73.5773V61.7941H74.5433V72.0001Z" fill="black" fill-opacity="0.6"/>
<rect x="104" y="47.0001" width="88" height="39" rx="19.5" fill="#F0F0F0"/>
<path d="M127.696 67.0021L124.196 61.9761H125.386L127.248 64.6081C127.724 65.2801 128.046 65.8121 128.284 66.2601L131.196 61.9761H132.358L128.914 66.9741L132.414 72.0001H131.21L129.306 69.3121C128.97 68.8361 128.564 68.2201 128.312 67.7721L125.386 72.0001H124.21L127.696 67.0021ZM133.291 68.7521V67.8841H137.351V68.7521H133.291ZM138.52 64.5801C138.52 62.9001 139.864 61.7941 141.88 61.7941C143.686 61.7941 144.876 62.8021 145.03 64.4821H144.008C143.896 63.3481 143.126 62.7041 141.866 62.7041C140.452 62.7041 139.528 63.4321 139.528 64.5661C139.528 65.4481 140.046 66.0081 141.096 66.2741L142.818 66.6941C144.386 67.0721 145.198 67.9681 145.198 69.3261C145.198 71.0621 143.854 72.1681 141.782 72.1681C139.836 72.1681 138.52 71.1461 138.394 69.5081H139.43C139.486 70.5581 140.41 71.2441 141.782 71.2441C143.252 71.2441 144.19 70.5301 144.19 69.3821C144.19 68.4861 143.686 67.8981 142.608 67.6461L140.914 67.2261C139.346 66.8481 138.52 65.9521 138.52 64.5801ZM147.767 72.0001H146.801V65.2241H147.641L147.753 66.1901C148.089 65.4761 148.845 65.0421 149.797 65.0421C150.861 65.0421 151.659 65.6021 151.981 66.4841C152.289 65.6021 153.115 65.0421 154.207 65.0421C155.677 65.0421 156.643 65.9941 156.643 67.5621V72.0001H155.705V67.7581C155.705 66.5961 155.061 65.9101 154.025 65.9101C152.891 65.9101 152.219 66.7641 152.219 67.8141V72.0001H151.267V67.7441C151.267 66.5961 150.609 65.9241 149.587 65.9241C148.453 65.9241 147.767 66.7641 147.767 67.8001V72.0001ZM160.532 72.1681C159.09 72.1681 158.236 71.3561 158.236 70.1661C158.236 68.9201 159.188 68.1361 160.77 68.0101L163.01 67.8281V67.6041C163.01 66.2741 162.212 65.8541 161.218 65.8541C160.042 65.8541 159.342 66.3861 159.342 67.2961H158.46C158.46 65.9241 159.58 65.0421 161.246 65.0421C162.814 65.0421 163.962 65.8261 163.962 67.6181V72.0001H163.15L163.024 70.8101C162.604 71.6641 161.68 72.1681 160.532 72.1681ZM160.756 71.3841C162.184 71.3841 163.01 70.3901 163.01 68.9201V68.5561L161.008 68.7101C159.734 68.8221 159.216 69.3821 159.216 70.1381C159.216 70.9641 159.832 71.3841 160.756 71.3841ZM166.909 72.0001H165.943V61.7941H166.909V72.0001ZM169.971 72.0001H169.005V61.7941H169.971V72.0001Z" fill="black" fill-opacity="0.6"/>
<rect y="94.0001" width="74" height="39" rx="19.5" fill="#F0F0F0"/>
<path d="M20.616 111.58C20.616 109.9 21.96 108.794 23.976 108.794C25.782 108.794 26.972 109.802 27.126 111.482H26.104C25.992 110.348 25.222 109.704 23.962 109.704C22.548 109.704 21.624 110.432 21.624 111.566C21.624 112.448 22.142 113.008 23.192 113.274L24.914 113.694C26.482 114.072 27.294 114.968 27.294 116.326C27.294 118.062 25.95 119.168 23.878 119.168C21.932 119.168 20.616 118.146 20.49 116.508H21.526C21.582 117.558 22.506 118.244 23.878 118.244C25.348 118.244 26.286 117.53 26.286 116.382C26.286 115.486 25.782 114.898 24.704 114.646L23.01 114.226C21.442 113.848 20.616 112.952 20.616 111.58ZM29.8627 119H28.8967V112.224H29.7367L29.8487 113.19C30.1847 112.476 30.9407 112.042 31.8927 112.042C32.9567 112.042 33.7547 112.602 34.0767 113.484C34.3847 112.602 35.2107 112.042 36.3027 112.042C37.7727 112.042 38.7387 112.994 38.7387 114.562V119H37.8007V114.758C37.8007 113.596 37.1567 112.91 36.1207 112.91C34.9867 112.91 34.3147 113.764 34.3147 114.814V119H33.3627V114.744C33.3627 113.596 32.7047 112.924 31.6827 112.924C30.5487 112.924 29.8627 113.764 29.8627 114.8V119ZM42.6278 119.168C41.1858 119.168 40.3318 118.356 40.3318 117.166C40.3318 115.92 41.2838 115.136 42.8658 115.01L45.1058 114.828V114.604C45.1058 113.274 44.3078 112.854 43.3138 112.854C42.1378 112.854 41.4378 113.386 41.4378 114.296H40.5558C40.5558 112.924 41.6758 112.042 43.3418 112.042C44.9098 112.042 46.0578 112.826 46.0578 114.618V119H45.2458L45.1198 117.81C44.6998 118.664 43.7758 119.168 42.6278 119.168ZM42.8518 118.384C44.2798 118.384 45.1058 117.39 45.1058 115.92V115.556L43.1038 115.71C41.8298 115.822 41.3118 116.382 41.3118 117.138C41.3118 117.964 41.9278 118.384 42.8518 118.384ZM49.0043 119H48.0383V108.794H49.0043V119ZM52.0668 119H51.1008V108.794H52.0668V119Z" fill="black" fill-opacity="0.6"/>
<rect x="82" y="94.0001" width="90" height="39" rx="19.5" fill="#F0F0F0"/>
<path d="M104.212 119H103.218V108.976H104.212L107.866 117.81L111.52 108.976H112.528V119H111.534V114.24C111.534 112.49 111.562 111.72 111.618 111.034L108.356 119H107.39L104.128 111.076C104.184 111.454 104.212 112.56 104.212 114.086V119ZM117.594 119.168C115.606 119.168 114.276 117.74 114.276 115.612C114.276 113.498 115.592 112.042 117.524 112.042C119.358 112.042 120.604 113.344 120.604 115.262V115.738H115.214C115.284 117.39 116.152 118.342 117.608 118.342C118.714 118.342 119.428 117.866 119.68 116.97H120.604C120.24 118.398 119.19 119.168 117.594 119.168ZM117.524 112.868C116.25 112.868 115.41 113.708 115.242 115.038H119.638C119.638 113.736 118.798 112.868 117.524 112.868ZM124.809 119.168C122.835 119.168 121.673 117.656 121.673 115.626C121.673 113.582 122.835 112.042 124.851 112.042C125.971 112.042 126.867 112.532 127.343 113.512V108.794H128.309V119H127.469L127.371 117.614C126.895 118.664 125.943 119.168 124.809 119.168ZM124.977 118.286C126.461 118.286 127.329 117.166 127.329 115.598C127.329 114.044 126.461 112.91 124.977 112.91C123.507 112.91 122.653 114.044 122.653 115.598C122.653 117.166 123.507 118.286 124.977 118.286ZM130.8 110.362C130.408 110.362 130.086 110.04 130.086 109.648C130.086 109.256 130.408 108.92 130.8 108.92C131.192 108.92 131.528 109.256 131.528 109.648C131.528 110.04 131.192 110.362 130.8 110.362ZM130.324 119V112.224H131.29V119H130.324ZM137.641 112.224H138.607V119H137.767L137.641 117.852C137.263 118.636 136.325 119.168 135.261 119.168C133.665 119.168 132.797 118.076 132.797 116.424V112.21H133.777V116.116C133.777 117.726 134.491 118.3 135.569 118.3C136.871 118.3 137.641 117.432 137.641 115.822V112.224ZM141.585 119H140.619V112.224H141.459L141.571 113.19C141.907 112.476 142.663 112.042 143.615 112.042C144.679 112.042 145.477 112.602 145.799 113.484C146.107 112.602 146.933 112.042 148.025 112.042C149.495 112.042 150.461 112.994 150.461 114.562V119H149.523V114.758C149.523 113.596 148.879 112.91 147.843 112.91C146.709 112.91 146.037 113.764 146.037 114.814V119H145.085V114.744C145.085 113.596 144.427 112.924 143.405 112.924C142.271 112.924 141.585 113.764 141.585 114.8V119Z" fill="black" fill-opacity="0.6"/>
<rect y="141" width="76" height="39" rx="19.5" fill="black"/>
<path d="M22.548 155.878V164.726H27V166H21.176V155.878H22.548ZM30.2685 166.168C28.7985 166.168 27.9305 165.342 27.9305 164.096C27.9305 162.836 28.8685 162.052 30.4785 161.926L32.6345 161.758V161.562C32.6345 160.414 31.9485 160.008 31.0245 160.008C29.9185 160.008 29.2885 160.498 29.2885 161.324H28.1405C28.1405 159.896 29.3165 158.958 31.0805 158.958C32.7745 158.958 33.9225 159.854 33.9225 161.702V166H32.8025L32.6625 164.894C32.3125 165.678 31.3745 166.168 30.2685 166.168ZM30.6465 165.146C31.8925 165.146 32.6485 164.334 32.6485 163.046V162.682L30.8985 162.822C29.7365 162.934 29.2605 163.382 29.2605 164.054C29.2605 164.782 29.7925 165.146 30.6465 165.146ZM39.665 159.098V160.302H39.077C37.831 160.302 37.061 161.058 37.061 162.374V166H35.745V159.168H36.977L37.061 160.204C37.341 159.49 38.027 159.014 38.965 159.014C39.203 159.014 39.399 159.042 39.665 159.098ZM40.3149 162.402C40.3149 160.47 41.5609 158.958 43.5489 158.958C44.6549 158.958 45.5089 159.462 45.9429 160.316L46.0409 159.154H47.2169V165.72C47.2169 167.876 45.8869 169.248 43.7869 169.248C41.9249 169.248 40.6509 168.198 40.3989 166.462H41.7149C41.8829 167.47 42.6389 168.058 43.7869 168.058C45.0749 168.058 45.9149 167.218 45.9149 165.916V164.544C45.4669 165.342 44.5709 165.818 43.4929 165.818C41.5469 165.818 40.3149 164.32 40.3149 162.402ZM41.6309 162.374C41.6309 163.662 42.4289 164.67 43.7169 164.67C45.0469 164.67 45.8589 163.718 45.8589 162.374C45.8589 161.058 45.0749 160.106 43.7309 160.106C42.4149 160.106 41.6309 161.114 41.6309 162.374ZM52.0701 166.168C50.0541 166.168 48.6681 164.712 48.6681 162.584C48.6681 160.442 50.0261 158.958 52.0141 158.958C53.9601 158.958 55.2341 160.302 55.2341 162.332V162.822L49.9421 162.836C50.0401 164.278 50.7961 165.076 52.0981 165.076C53.1201 165.076 53.7921 164.656 54.0161 163.872H55.2481C54.9121 165.342 53.7641 166.168 52.0701 166.168ZM52.0141 160.064C50.8661 160.064 50.1381 160.75 49.9701 161.954H53.9181C53.9181 160.82 53.1761 160.064 52.0141 160.064Z" fill="white"/>
<rect x="84" y="141" width="89" height="39" rx="19.5" fill="#F0F0F0"/>
<path d="M107.696 161.002L104.196 155.976H105.386L107.248 158.608C107.724 159.28 108.046 159.812 108.284 160.26L111.196 155.976H112.358L108.914 160.974L112.414 166H111.21L109.306 163.312C108.97 162.836 108.564 162.22 108.312 161.772L105.386 166H104.21L107.696 161.002ZM113.291 162.752V161.884H117.351V162.752H113.291ZM120.472 155.976V165.076H125.078V166H119.464V155.976H120.472ZM128.323 166.168C126.881 166.168 126.027 165.356 126.027 164.166C126.027 162.92 126.979 162.136 128.561 162.01L130.801 161.828V161.604C130.801 160.274 130.003 159.854 129.009 159.854C127.833 159.854 127.133 160.386 127.133 161.296H126.251C126.251 159.924 127.371 159.042 129.037 159.042C130.605 159.042 131.753 159.826 131.753 161.618V166H130.941L130.815 164.81C130.395 165.664 129.471 166.168 128.323 166.168ZM128.547 165.384C129.975 165.384 130.801 164.39 130.801 162.92V162.556L128.799 162.71C127.525 162.822 127.007 163.382 127.007 164.138C127.007 164.964 127.623 165.384 128.547 165.384ZM137.234 159.14V160.008H136.702C135.456 160.008 134.658 160.848 134.658 162.136V166H133.692V159.224H134.602L134.672 160.274C134.938 159.546 135.652 159.07 136.604 159.07C136.814 159.07 136.996 159.084 137.234 159.14ZM137.933 162.416C137.933 160.568 139.123 159.042 141.111 159.042C142.287 159.042 143.183 159.588 143.617 160.582L143.715 159.224H144.555V165.79C144.555 167.806 143.267 169.122 141.279 169.122C139.543 169.122 138.325 168.142 138.059 166.504H139.025C139.235 167.596 140.075 168.24 141.293 168.24C142.679 168.24 143.603 167.302 143.603 165.888V164.278C143.141 165.23 142.203 165.79 141.041 165.79C139.109 165.79 137.933 164.264 137.933 162.416ZM138.899 162.402C138.899 163.788 139.753 164.922 141.181 164.922C142.651 164.922 143.519 163.858 143.519 162.402C143.519 160.96 142.679 159.896 141.195 159.896C139.739 159.896 138.899 161.03 138.899 162.402ZM149.413 166.168C147.425 166.168 146.095 164.74 146.095 162.612C146.095 160.498 147.41 159.042 149.343 159.042C151.177 159.042 152.423 160.344 152.423 162.262V162.738H147.033C147.103 164.39 147.971 165.342 149.427 165.342C150.533 165.342 151.247 164.866 151.499 163.97H152.423C152.059 165.398 151.009 166.168 149.413 166.168ZM149.343 159.868C148.069 159.868 147.229 160.708 147.061 162.038H151.457C151.457 160.736 150.617 159.868 149.343 159.868Z" fill="black" fill-opacity="0.6"/>
<rect y="188" width="98" height="39" rx="19.5" fill="#F0F0F0"/>
<path d="M23.696 208.002L20.196 202.976H21.386L23.248 205.608C23.724 206.28 24.046 206.812 24.284 207.26L27.196 202.976H28.358L24.914 207.974L28.414 213H27.21L25.306 210.312C24.97 209.836 24.564 209.22 24.312 208.772L21.386 213H20.21L23.696 208.002ZM32.2683 208.002L28.7683 202.976H29.9583L31.8203 205.608C32.2963 206.28 32.6183 206.812 32.8563 207.26L35.7683 202.976H36.9303L33.4863 207.974L36.9863 213H35.7823L33.8783 210.312C33.5423 209.836 33.1363 209.22 32.8843 208.772L29.9583 213H28.7823L32.2683 208.002ZM37.8628 209.752V208.884H41.9228V209.752H37.8628ZM45.0444 202.976V212.076H49.6504V213H44.0364V202.976H45.0444ZM52.8954 213.168C51.4534 213.168 50.5994 212.356 50.5994 211.166C50.5994 209.92 51.5514 209.136 53.1334 209.01L55.3734 208.828V208.604C55.3734 207.274 54.5754 206.854 53.5814 206.854C52.4054 206.854 51.7054 207.386 51.7054 208.296H50.8234C50.8234 206.924 51.9434 206.042 53.6094 206.042C55.1774 206.042 56.3254 206.826 56.3254 208.618V213H55.5134L55.3874 211.81C54.9674 212.664 54.0434 213.168 52.8954 213.168ZM53.1194 212.384C54.5474 212.384 55.3734 211.39 55.3734 209.92V209.556L53.3714 209.71C52.0974 209.822 51.5794 210.382 51.5794 211.138C51.5794 211.964 52.1954 212.384 53.1194 212.384ZM61.8059 206.14V207.008H61.2739C60.0279 207.008 59.2299 207.848 59.2299 209.136V213H58.2639V206.224H59.1739L59.2439 207.274C59.5099 206.546 60.2239 206.07 61.1759 206.07C61.3859 206.07 61.5679 206.084 61.8059 206.14ZM62.505 209.416C62.505 207.568 63.695 206.042 65.683 206.042C66.859 206.042 67.755 206.588 68.189 207.582L68.287 206.224H69.127V212.79C69.127 214.806 67.839 216.122 65.851 216.122C64.115 216.122 62.897 215.142 62.631 213.504H63.597C63.807 214.596 64.647 215.24 65.865 215.24C67.251 215.24 68.175 214.302 68.175 212.888V211.278C67.713 212.23 66.775 212.79 65.613 212.79C63.681 212.79 62.505 211.264 62.505 209.416ZM63.471 209.402C63.471 210.788 64.325 211.922 65.753 211.922C67.223 211.922 68.091 210.858 68.091 209.402C68.091 207.96 67.251 206.896 65.767 206.896C64.311 206.896 63.471 208.03 63.471 209.402ZM73.9848 213.168C71.9968 213.168 70.6668 211.74 70.6668 209.612C70.6668 207.498 71.9828 206.042 73.9148 206.042C75.7488 206.042 76.9948 207.344 76.9948 209.262V209.738H71.6048C71.6748 211.39 72.5428 212.342 73.9988 212.342C75.1048 212.342 75.8188 211.866 76.0708 210.97H76.9948C76.6308 212.398 75.5808 213.168 73.9848 213.168ZM73.9148 206.868C72.6408 206.868 71.8008 207.708 71.6328 209.038H76.0288C76.0288 207.736 75.1888 206.868 73.9148 206.868Z" fill="black" fill-opacity="0.6"/>
<rect x="106" y="188" width="97" height="39" rx="19.5" fill="#F0F0F0"/>
<path d="M129.542 207.624H128.744V206.924L131.838 203.872H127.036V202.976H133.112V203.788L130.116 206.77C131.992 206.868 133.336 208.058 133.336 209.878C133.336 211.866 131.88 213.168 129.85 213.168C127.876 213.168 126.546 211.95 126.546 209.948H127.54C127.54 211.39 128.436 212.258 129.85 212.258C131.348 212.258 132.314 211.306 132.314 209.85C132.314 208.478 131.334 207.624 129.542 207.624ZM137.653 208.002L134.153 202.976H135.343L137.205 205.608C137.681 206.28 138.003 206.812 138.241 207.26L141.153 202.976H142.315L138.871 207.974L142.371 213H141.167L139.263 210.312C138.927 209.836 138.521 209.22 138.269 208.772L135.343 213H134.167L137.653 208.002ZM143.248 209.752V208.884H147.308V209.752H143.248ZM150.429 202.976V212.076H155.035V213H149.421V202.976H150.429ZM158.28 213.168C156.838 213.168 155.984 212.356 155.984 211.166C155.984 209.92 156.936 209.136 158.518 209.01L160.758 208.828V208.604C160.758 207.274 159.96 206.854 158.966 206.854C157.79 206.854 157.09 207.386 157.09 208.296H156.208C156.208 206.924 157.328 206.042 158.994 206.042C160.562 206.042 161.71 206.826 161.71 208.618V213H160.898L160.772 211.81C160.352 212.664 159.428 213.168 158.28 213.168ZM158.504 212.384C159.932 212.384 160.758 211.39 160.758 209.92V209.556L158.756 209.71C157.482 209.822 156.964 210.382 156.964 211.138C156.964 211.964 157.58 212.384 158.504 212.384ZM167.191 206.14V207.008H166.659C165.413 207.008 164.615 207.848 164.615 209.136V213H163.649V206.224H164.559L164.629 207.274C164.895 206.546 165.609 206.07 166.561 206.07C166.771 206.07 166.953 206.084 167.191 206.14ZM167.89 209.416C167.89 207.568 169.08 206.042 171.068 206.042C172.244 206.042 173.14 206.588 173.574 207.582L173.672 206.224H174.512V212.79C174.512 214.806 173.224 216.122 171.236 216.122C169.5 216.122 168.282 215.142 168.016 213.504H168.982C169.192 214.596 170.032 215.24 171.25 215.24C172.636 215.24 173.56 214.302 173.56 212.888V211.278C173.098 212.23 172.16 212.79 170.998 212.79C169.066 212.79 167.89 211.264 167.89 209.416ZM168.856 209.402C168.856 210.788 169.71 211.922 171.138 211.922C172.608 211.922 173.476 210.858 173.476 209.402C173.476 207.96 172.636 206.896 171.152 206.896C169.696 206.896 168.856 208.03 168.856 209.402ZM179.37 213.168C177.382 213.168 176.052 211.74 176.052 209.612C176.052 207.498 177.368 206.042 179.3 206.042C181.134 206.042 182.38 207.344 182.38 209.262V209.738H176.99C177.06 211.39 177.928 212.342 179.384 212.342C180.49 212.342 181.204 211.866 181.456 210.97H182.38C182.016 212.398 180.966 213.168 179.37 213.168ZM179.3 206.868C178.026 206.868 177.186 207.708 177.018 209.038H181.414C181.414 207.736 180.574 206.868 179.3 206.868Z" fill="black" fill-opacity="0.6"/>
<rect y="235" width="98" height="39" rx="19.5" fill="#F0F0F0"/>
<path d="M27.98 257.872H26.804V260H25.824V257.872H20.56V256.976L25.46 249.976H26.804V256.976H27.98V257.872ZM21.652 256.976H25.824V251.012L21.652 256.976ZM32.4733 255.002L28.9733 249.976H30.1633L32.0253 252.608C32.5013 253.28 32.8233 253.812 33.0613 254.26L35.9733 249.976H37.1353L33.6913 254.974L37.1913 260H35.9873L34.0833 257.312C33.7473 256.836 33.3413 256.22 33.0893 255.772L30.1633 260H28.9873L32.4733 255.002ZM38.0679 256.752V255.884H42.1279V256.752H38.0679ZM45.2494 249.976V259.076H49.8554V260H44.2414V249.976H45.2494ZM53.1005 260.168C51.6585 260.168 50.8045 259.356 50.8045 258.166C50.8045 256.92 51.7565 256.136 53.3385 256.01L55.5785 255.828V255.604C55.5785 254.274 54.7805 253.854 53.7865 253.854C52.6105 253.854 51.9105 254.386 51.9105 255.296H51.0285C51.0285 253.924 52.1485 253.042 53.8145 253.042C55.3825 253.042 56.5305 253.826 56.5305 255.618V260H55.7185L55.5925 258.81C55.1725 259.664 54.2485 260.168 53.1005 260.168ZM53.3245 259.384C54.7525 259.384 55.5785 258.39 55.5785 256.92V256.556L53.5765 256.71C52.3025 256.822 51.7845 257.382 51.7845 258.138C51.7845 258.964 52.4005 259.384 53.3245 259.384ZM62.0109 253.14V254.008H61.4789C60.2329 254.008 59.4349 254.848 59.4349 256.136V260H58.4689V253.224H59.3789L59.4489 254.274C59.7149 253.546 60.4289 253.07 61.3809 253.07C61.5909 253.07 61.7729 253.084 62.0109 253.14ZM62.7101 256.416C62.7101 254.568 63.9001 253.042 65.8881 253.042C67.0641 253.042 67.9601 253.588 68.3941 254.582L68.4921 253.224H69.3321V259.79C69.3321 261.806 68.0441 263.122 66.0561 263.122C64.3201 263.122 63.1021 262.142 62.8361 260.504H63.8021C64.0121 261.596 64.8521 262.24 66.0701 262.24C67.4561 262.24 68.3801 261.302 68.3801 259.888V258.278C67.9181 259.23 66.9801 259.79 65.8181 259.79C63.8861 259.79 62.7101 258.264 62.7101 256.416ZM63.6761 256.402C63.6761 257.788 64.5301 258.922 65.9581 258.922C67.4281 258.922 68.2961 257.858 68.2961 256.402C68.2961 254.96 67.4561 253.896 65.9721 253.896C64.5161 253.896 63.6761 255.03 63.6761 256.402ZM74.1898 260.168C72.2018 260.168 70.8718 258.74 70.8718 256.612C70.8718 254.498 72.1878 253.042 74.1198 253.042C75.9538 253.042 77.1998 254.344 77.1998 256.262V256.738H71.8098C71.8798 258.39 72.7478 259.342 74.2038 259.342C75.3098 259.342 76.0238 258.866 76.2758 257.97H77.1998C76.8358 259.398 75.7858 260.168 74.1898 260.168ZM74.1198 253.868C72.8458 253.868 72.0058 254.708 71.8378 256.038H76.2338C76.2338 254.736 75.3938 253.868 74.1198 253.868Z" fill="black" fill-opacity="0.6"/>
</svg>
