<svg width="247" height="137" viewBox="0 0 247 137" fill="none" xmlns="http://www.w3.org/2000/svg">
<path d="M7.8 21.2401C3.54 21.2401 0.78 18.2801 0.78 13.7001C0.78 9.16012 3.64 6.14012 7.92 6.14012C11.38 6.14012 13.96 8.16012 14.46 11.3001H11.76C11.26 9.60012 9.8 8.60012 7.86 8.60012C5.16 8.60012 3.46 10.5601 3.46 13.6801C3.46 16.7801 5.18 18.7801 7.86 18.7801C9.84 18.7801 11.36 17.7401 11.84 16.1201H14.5C13.94 19.2001 11.26 21.2401 7.8 21.2401ZM15.8558 16.0401C15.8558 12.9601 18.0758 10.8401 21.1358 10.8401C24.1958 10.8401 26.4158 12.9601 26.4158 16.0401C26.4158 19.1201 24.1958 21.2401 21.1358 21.2401C18.0758 21.2401 15.8558 19.1201 15.8558 16.0401ZM18.2958 16.0401C18.2958 17.8401 19.4558 19.0601 21.1358 19.0601C22.8158 19.0601 23.9758 17.8401 23.9758 16.0401C23.9758 14.2401 22.8158 13.0201 21.1358 13.0201C19.4558 13.0201 18.2958 14.2401 18.2958 16.0401ZM30.8098 21.0001H28.3898V6.12012H30.8098V21.0001ZM32.7894 16.0401C32.7894 12.9601 35.0094 10.8401 38.0694 10.8401C41.1294 10.8401 43.3494 12.9601 43.3494 16.0401C43.3494 19.1201 41.1294 21.2401 38.0694 21.2401C35.0094 21.2401 32.7894 19.1201 32.7894 16.0401ZM35.2294 16.0401C35.2294 17.8401 36.3894 19.0601 38.0694 19.0601C39.7494 19.0601 40.9094 17.8401 40.9094 16.0401C40.9094 14.2401 39.7494 13.0201 38.0694 13.0201C36.3894 13.0201 35.2294 14.2401 35.2294 16.0401ZM51.4834 11.0801V13.3401H50.5834C48.8234 13.3401 47.7234 14.2801 47.7234 16.2001V21.0001H45.2834V11.1401H47.5834L47.7234 12.5801C48.1434 11.6001 49.0834 10.9401 50.4034 10.9401C50.7434 10.9401 51.0834 10.9801 51.4834 11.0801ZM52.375 18.0001H54.695C54.715 18.8601 55.355 19.4001 56.475 19.4001C57.615 19.4001 58.235 18.9401 58.235 18.2201C58.235 17.7201 57.975 17.3601 57.095 17.1601L55.315 16.7401C53.535 16.3401 52.675 15.5001 52.675 13.9201C52.675 11.9801 54.315 10.8201 56.595 10.8201C58.815 10.8201 60.315 12.1001 60.335 14.0201H58.015C57.995 13.1801 57.435 12.6401 56.495 12.6401C55.535 12.6401 54.975 13.0801 54.975 13.8201C54.975 14.3801 55.415 14.7401 56.255 14.9401L58.035 15.3601C59.695 15.7401 60.535 16.5001 60.535 18.0201C60.535 20.0201 58.835 21.2601 56.395 21.2601C53.935 21.2601 52.375 19.9401 52.375 18.0001Z" fill="black"/>
<path d="M233.469 14.9694L238.469 9.96945C238.539 9.89953 238.622 9.84405 238.713 9.8062C238.804 9.76834 238.902 9.74886 239.001 9.74886C239.099 9.74886 239.197 9.76834 239.288 9.8062C239.379 9.84405 239.462 9.89953 239.532 9.96945L244.532 14.9694C244.673 15.1103 244.752 15.3014 244.752 15.5007C244.752 15.7 244.673 15.8911 244.532 16.0319C244.391 16.1728 244.2 16.252 244.001 16.252C243.801 16.252 243.61 16.1728 243.469 16.0319L239 11.5626L234.531 16.0326C234.39 16.1735 234.199 16.2526 233.999 16.2526C233.8 16.2526 233.609 16.1735 233.468 16.0326C233.327 15.8917 233.248 15.7006 233.248 15.5013C233.248 15.3021 233.327 15.111 233.468 14.9701L233.469 14.9694Z" fill="black"/>
<circle cx="18.5" cy="65.5001" r="18.5" fill="#00C12B"/>
<circle cx="18.5" cy="65.5001" r="17.5" stroke="black" stroke-opacity="0.2" stroke-width="2"/>
<circle cx="71" cy="65.5001" r="18.5" fill="#F50606"/>
<circle cx="71" cy="65.5001" r="18" stroke="black" stroke-opacity="0.2"/>
<circle cx="123.5" cy="65.5001" r="18.5" fill="#F5DD06"/>
<circle cx="123.5" cy="65.5001" r="18" stroke="black" stroke-opacity="0.2"/>
<circle cx="176" cy="65.5001" r="18.5" fill="#F57906"/>
<circle cx="176" cy="65.5001" r="18" stroke="black" stroke-opacity="0.2"/>
<circle cx="228.5" cy="65.5001" r="18.5" fill="#06CAF5"/>
<circle cx="228.5" cy="65.5001" r="18" stroke="black" stroke-opacity="0.2"/>
<circle cx="18.5" cy="118.5" r="18.5" fill="#063AF5"/>
<circle cx="18.5" cy="118.5" r="17.5" stroke="black" stroke-opacity="0.2" stroke-width="2"/>
<path d="M24.5306 115.031L16.5306 123.031C16.4609 123.101 16.3781 123.156 16.287 123.194C16.1958 123.232 16.0981 123.251 15.9993 123.251C15.9006 123.251 15.8029 123.232 15.7117 123.194C15.6206 123.156 15.5378 123.101 15.4681 123.031L11.9681 119.531C11.8983 119.461 11.843 119.378 11.8052 119.287C11.7675 119.196 11.748 119.098 11.748 118.999C11.748 118.901 11.7675 118.803 11.8052 118.712C11.843 118.621 11.8983 118.538 11.9681 118.468C12.0379 118.398 12.1207 118.343 12.2118 118.305C12.303 118.268 12.4007 118.248 12.4993 118.248C12.598 118.248 12.6957 118.268 12.7869 118.305C12.878 118.343 12.9608 118.398 13.0306 118.468L16 121.438L23.4693 113.969C23.6102 113.828 23.8013 113.749 24.0006 113.749C24.1999 113.749 24.391 113.828 24.5318 113.969C24.6727 114.11 24.7519 114.301 24.7519 114.501C24.7519 114.7 24.6727 114.891 24.5318 115.032L24.5306 115.031Z" fill="white"/>
<circle cx="71" cy="118.5" r="18.5" fill="#7D06F5"/>
<circle cx="71" cy="118.5" r="18" stroke="black" stroke-opacity="0.2"/>
<circle cx="123.5" cy="118.5" r="18.5" fill="#F506A4"/>
<circle cx="123.5" cy="118.5" r="18" stroke="black" stroke-opacity="0.2"/>
<circle cx="176" cy="118.5" r="18.5" fill="white"/>
<circle cx="176" cy="118.5" r="18" stroke="black" stroke-opacity="0.2"/>
<circle cx="228.5" cy="118.5" r="18.5" fill="black"/>
</svg>
