<svg width="24" height="24" viewBox="0 0 24 24" fill="none" xmlns="http://www.w3.org/2000/svg">
<path d="M20.25 4.50006H16.5V3.75006C16.5 3.15332 16.2629 2.58103 15.841 2.15907C15.419 1.73711 14.8467 1.50006 14.25 1.50006H9.75C9.15326 1.50006 8.58097 1.73711 8.15901 2.15907C7.73705 2.58103 7.5 3.15332 7.5 3.75006V4.50006H3.75C3.55109 4.50006 3.36032 4.57908 3.21967 4.71973C3.07902 4.86038 3 5.05115 3 5.25006C3 5.44897 3.07902 5.63974 3.21967 5.78039C3.36032 5.92104 3.55109 6.00006 3.75 6.00006H4.5V19.5001C4.5 19.8979 4.65804 20.2794 4.93934 20.5607C5.22064 20.842 5.60218 21.0001 6 21.0001H18C18.3978 21.0001 18.7794 20.842 19.0607 20.5607C19.342 20.2794 19.5 19.8979 19.5 19.5001V6.00006H20.25C20.4489 6.00006 20.6397 5.92104 20.7803 5.78039C20.921 5.63974 21 5.44897 21 5.25006C21 5.05115 20.921 4.86038 20.7803 4.71973C20.6397 4.57908 20.4489 4.50006 20.25 4.50006ZM10.5 15.7501C10.5 15.949 10.421 16.1397 10.2803 16.2804C10.1397 16.421 9.94891 16.5001 9.75 16.5001C9.55109 16.5001 9.36032 16.421 9.21967 16.2804C9.07902 16.1397 9 15.949 9 15.7501V9.75006C9 9.55115 9.07902 9.36038 9.21967 9.21973C9.36032 9.07908 9.55109 9.00006 9.75 9.00006C9.94891 9.00006 10.1397 9.07908 10.2803 9.21973C10.421 9.36038 10.5 9.55115 10.5 9.75006V15.7501ZM15 15.7501C15 15.949 14.921 16.1397 14.7803 16.2804C14.6397 16.421 14.4489 16.5001 14.25 16.5001C14.0511 16.5001 13.8603 16.421 13.7197 16.2804C13.579 16.1397 13.5 15.949 13.5 15.7501V9.75006C13.5 9.55115 13.579 9.36038 13.7197 9.21973C13.8603 9.07908 14.0511 9.00006 14.25 9.00006C14.4489 9.00006 14.6397 9.07908 14.7803 9.21973C14.921 9.36038 15 9.55115 15 9.75006V15.7501ZM15 4.50006H9V3.75006C9 3.55115 9.07902 3.36038 9.21967 3.21973C9.36032 3.07908 9.55109 3.00006 9.75 3.00006H14.25C14.4489 3.00006 14.6397 3.07908 14.7803 3.21973C14.921 3.36038 15 3.55115 15 3.75006V4.50006Z" fill="#FF3333"/>
</svg>
