<svg width="247" height="90" viewBox="0 0 247 90" fill="none" xmlns="http://www.w3.org/2000/svg">
<path d="M7.4 15.9601H4.18V21.0001H1.62V6.38006H7.4C10.34 6.38006 12.24 8.30006 12.24 11.1601C12.24 13.9801 10.32 15.9601 7.4 15.9601ZM6.9 8.66006H4.18V13.6801H6.86C8.62 13.6801 9.56 12.7401 9.56 11.1401C9.56 9.54006 8.6 8.66006 6.9 8.66006ZM20.2334 11.0801V13.3401H19.3334C17.5734 13.3401 16.4734 14.2801 16.4734 16.2001V21.0001H14.0334V11.1401H16.3334L16.4734 12.5801C16.8934 11.6001 17.8334 10.9401 19.1534 10.9401C19.4934 10.9401 19.8334 10.9801 20.2334 11.0801ZM23.105 9.14006C22.265 9.14006 21.605 8.48006 21.605 7.66006C21.605 6.84006 22.265 6.20006 23.105 6.20006C23.905 6.20006 24.565 6.84006 24.565 7.66006C24.565 8.48006 23.905 9.14006 23.105 9.14006ZM21.885 21.0001V11.1201H24.325V21.0001H21.885ZM26.2659 16.0401C26.2659 12.9801 28.2859 10.8201 31.2059 10.8201C33.9059 10.8201 35.7459 12.3201 36.0059 14.7001H33.5659C33.2859 13.5801 32.4659 13.0001 31.3059 13.0001C29.7459 13.0001 28.7059 14.1801 28.7059 16.0401C28.7059 17.9001 29.6659 19.0601 31.2259 19.0601C32.4459 19.0601 33.3059 18.4601 33.5659 17.3801H36.0259C35.7259 19.6801 33.8059 21.2601 31.2259 21.2601C28.2259 21.2601 26.2659 19.1801 26.2659 16.0401ZM42.262 21.2601C39.322 21.2601 37.262 19.1201 37.262 16.0601C37.262 12.9601 39.282 10.8201 42.182 10.8201C45.142 10.8201 47.022 12.8001 47.022 15.8801V16.6201L39.582 16.6401C39.762 18.3801 40.682 19.2601 42.302 19.2601C43.642 19.2601 44.522 18.7401 44.802 17.8001H47.062C46.642 19.9601 44.842 21.2601 42.262 21.2601ZM42.202 12.8201C40.762 12.8201 39.882 13.6001 39.642 15.0801H44.602C44.602 13.7201 43.662 12.8201 42.202 12.8201Z" fill="black"/>
<path d="M233.469 14.9694L238.469 9.96945C238.539 9.89953 238.622 9.84405 238.713 9.8062C238.804 9.76834 238.902 9.74886 239.001 9.74886C239.099 9.74886 239.197 9.76834 239.288 9.8062C239.379 9.84405 239.462 9.89953 239.532 9.96945L244.532 14.9694C244.673 15.1103 244.752 15.3014 244.752 15.5007C244.752 15.7 244.673 15.8911 244.532 16.0319C244.391 16.1728 244.2 16.252 244.001 16.252C243.801 16.252 243.61 16.1728 243.469 16.0319L239 11.5626L234.531 16.0326C234.39 16.1735 234.199 16.2526 233.999 16.2526C233.8 16.2526 233.609 16.1735 233.468 16.0326C233.327 15.8917 233.248 15.7006 233.248 15.5013C233.248 15.3021 233.327 15.111 233.468 14.9701L233.469 14.9694Z" fill="black"/>
<path d="M40.598 87.3581V86.1541C38.75 86.0421 37.532 84.9921 37.448 83.3541H38.848C38.876 84.2501 39.534 84.8381 40.598 84.9501V81.4641L40.094 81.3521C38.442 80.9741 37.588 80.0501 37.588 78.6081C37.588 77.0121 38.778 75.8781 40.598 75.7241V74.5061H41.494V75.7101C43.188 75.8641 44.266 76.9001 44.364 78.5241H43.006C42.95 77.6281 42.404 77.0541 41.494 76.9281V80.4001L42.04 80.5261C43.72 80.9041 44.532 81.7861 44.532 83.1861C44.532 84.8521 43.342 85.9721 41.494 86.1401V87.3581H40.598ZM40.374 80.1341L40.598 80.1901V76.9281C39.562 77.0681 38.932 77.6701 38.932 78.5661C38.932 79.3781 39.394 79.8961 40.374 80.1341ZM41.76 81.7441L41.494 81.6881V84.9221C42.544 84.7821 43.188 84.1801 43.188 83.2981C43.188 82.4861 42.726 81.9681 41.76 81.7441ZM49.1681 86.1681C47.0961 86.1681 45.7521 84.8521 45.7521 82.8361H47.1101C47.1101 84.1381 47.9081 84.9361 49.1961 84.9361C50.5681 84.9361 51.4501 84.0261 51.4501 82.6541C51.4501 81.3521 50.6241 80.3861 49.2101 80.3861C48.3561 80.3861 47.5721 80.7921 47.1101 81.3661L45.9481 81.0721L47.1801 75.8781H52.2481V77.1381H48.1741L47.5021 79.8261C48.0341 79.4201 48.7061 79.2101 49.4621 79.2101C51.5201 79.2101 52.8501 80.6521 52.8501 82.5981C52.8501 84.6981 51.3521 86.1681 49.1681 86.1681ZM54.0376 80.9461C54.0376 77.8101 55.6616 75.6821 58.2096 75.6821C60.7436 75.6821 62.3676 77.8101 62.3676 80.9461C62.3676 84.0961 60.8136 86.1821 58.2096 86.1821C55.5916 86.1821 54.0376 84.0961 54.0376 80.9461ZM55.3956 80.9461C55.3956 83.4381 56.4316 84.9501 58.2096 84.9501C59.9876 84.9501 61.0096 83.4381 61.0096 80.9461C61.0096 78.4261 59.9876 76.9141 58.2096 76.9141C56.4316 76.9141 55.3956 78.4261 55.3956 80.9461Z" fill="black"/>
<path d="M182.825 87.3581V86.1541C180.977 86.0421 179.759 84.9921 179.675 83.3541H181.075C181.103 84.2501 181.761 84.8381 182.825 84.9501V81.4641L182.321 81.3521C180.669 80.9741 179.815 80.0501 179.815 78.6081C179.815 77.0121 181.005 75.8781 182.825 75.7241V74.5061H183.721V75.7101C185.415 75.8641 186.493 76.9001 186.591 78.5241H185.233C185.177 77.6281 184.631 77.0541 183.721 76.9281V80.4001L184.267 80.5261C185.947 80.9041 186.759 81.7861 186.759 83.1861C186.759 84.8521 185.569 85.9721 183.721 86.1401V87.3581H182.825ZM182.601 80.1341L182.825 80.1901V76.9281C181.789 77.0681 181.159 77.6701 181.159 78.5661C181.159 79.3781 181.621 79.8961 182.601 80.1341ZM183.987 81.7441L183.721 81.6881V84.9221C184.771 84.7821 185.415 84.1801 185.415 83.2981C185.415 82.4861 184.953 81.9681 183.987 81.7441ZM194.783 85.9861L187.951 86.0001V84.9501L191.213 82.1361C192.851 80.7221 193.313 80.0361 193.313 78.9581C193.313 77.6841 192.585 76.9281 191.367 76.9281C190.121 76.9281 189.309 77.8381 189.281 79.2801H187.909C187.951 77.1101 189.323 75.6961 191.381 75.6961C193.411 75.6961 194.713 76.9281 194.713 78.8741C194.713 80.3161 193.999 81.3381 192.207 82.8921L190.107 84.7121H194.783V85.9861ZM196.045 80.9461C196.045 77.8101 197.669 75.6821 200.217 75.6821C202.751 75.6821 204.375 77.8101 204.375 80.9461C204.375 84.0961 202.821 86.1821 200.217 86.1821C197.599 86.1821 196.045 84.0961 196.045 80.9461ZM197.403 80.9461C197.403 83.4381 198.439 84.9501 200.217 84.9501C201.995 84.9501 203.017 83.4381 203.017 80.9461C203.017 78.4261 201.995 76.9141 200.217 76.9141C198.439 76.9141 197.403 78.4261 197.403 80.9461ZM205.752 80.9461C205.752 77.8101 207.376 75.6821 209.924 75.6821C212.458 75.6821 214.082 77.8101 214.082 80.9461C214.082 84.0961 212.528 86.1821 209.924 86.1821C207.306 86.1821 205.752 84.0961 205.752 80.9461ZM207.11 80.9461C207.11 83.4381 208.146 84.9501 209.924 84.9501C211.702 84.9501 212.724 83.4381 212.724 80.9461C212.724 78.4261 211.702 76.9141 209.924 76.9141C208.146 76.9141 207.11 78.4261 207.11 80.9461Z" fill="black"/>
<rect y="55.0001" width="247" height="6" rx="3" fill="#F0F0F0"/>
<rect x="43.127" y="55" width="150.291" height="6" rx="3" fill="black"/>
<circle cx="51" cy="57.0001" r="10" fill="black"/>
<circle cx="197" cy="57.0001" r="10" fill="black"/>
</svg>
